<svg width="18" height="18" viewBox="0 0 18 18" fill="none" xmlns="http://www.w3.org/2000/svg">
<path d="M7.6875 7.5225C7.6875 7.9275 7.8 7.9875 8.055 8.0775L8.4375 8.2125V6.9375H8.2125C7.9275 6.9375 7.6875 7.2 7.6875 7.5225Z" fill="white"/>
<path d="M9.5625 11.0625H9.7875C10.08 11.0625 10.3125 10.8 10.3125 10.4775C10.3125 10.0725 10.2 10.0125 9.945 9.92251L9.5625 9.78751V11.0625Z" fill="white"/>
<path d="M14.685 4.11L13.1475 5.6475C13.035 5.76 12.8925 5.8125 12.75 5.8125C12.6075 5.8125 12.465 5.76 12.3525 5.6475C12.135 5.43 12.135 5.07 12.3525 4.8525L13.89 3.315C12.57 2.19 10.8675 1.5 9 1.5C4.86 1.5 1.5 4.86 1.5 9C1.5 13.14 4.86 16.5 9 16.5C13.14 16.5 16.5 13.14 16.5 9C16.5 7.1325 15.81 5.43 14.685 4.11ZM10.3125 8.865C10.7925 9.0375 11.4375 9.3825 11.4375 10.485C11.4375 11.4225 10.695 12.195 9.7875 12.195H9.5625V12.3825C9.5625 12.69 9.3075 12.945 9 12.945C8.6925 12.945 8.4375 12.69 8.4375 12.3825V12.195H8.3775C7.38 12.195 6.5625 11.355 6.5625 10.32C6.5625 10.005 6.8175 9.75 7.125 9.75C7.4325 9.75 7.6875 10.005 7.6875 10.3125C7.6875 10.725 7.995 11.0625 8.3775 11.0625H8.4375V9.3975L7.6875 9.135C7.2075 8.9625 6.5625 8.6175 6.5625 7.515C6.5625 6.5775 7.305 5.805 8.2125 5.805H8.4375V5.625C8.4375 5.3175 8.6925 5.0625 9 5.0625C9.3075 5.0625 9.5625 5.3175 9.5625 5.625V5.8125H9.6225C10.62 5.8125 11.4375 6.6525 11.4375 7.6875C11.4375 7.995 11.1825 8.25 10.875 8.25C10.5675 8.25 10.3125 7.995 10.3125 7.6875C10.3125 7.275 10.005 6.9375 9.6225 6.9375H9.5625V8.6025L10.3125 8.865Z" fill="white"/>
<path d="M17.0175 1.2825C16.9575 1.1475 16.8525 1.035 16.71 0.975C16.6425 0.9525 16.575 0.9375 16.5 0.9375H13.5C13.1925 0.9375 12.9375 1.1925 12.9375 1.5C12.9375 1.8075 13.1925 2.0625 13.5 2.0625H15.1425L13.89 3.315C14.175 3.5625 14.4375 3.825 14.685 4.11L15.9375 2.8575V4.5C15.9375 4.8075 16.1925 5.0625 16.5 5.0625C16.8075 5.0625 17.0625 4.8075 17.0625 4.5V1.5C17.0625 1.425 17.0475 1.3575 17.0175 1.2825Z" fill="white"/>
</svg>
